<?xml version="1.0" encoding="UTF-8" standalone="no"?>
<svg xmlns="http://www.w3.org/2000/svg" height="1250" viewBox="0 0 1000 1000" width="1250">
  <defs>
    <style>
      .a {
        fill: #922125;
      }
    </style>
  </defs>
  <title>KL Korps Commandotroepen KCT</title>
  <g>
    <polygon points="280.33 164.07 719.67 164.07 719.67 736.93 499.49 835.93 280.33 736.18 280.33 164.07"/>
    <g>
      <path class="a" d="M522.36,520.15c-.43-29.08-3-204.48-4.81-248.21-1.95-47.74-14-62.68-14-62.68V500.87l7.77,19.28h-7l-5.17-15.9L494,520.15h-7l7.77-19.28V209.26s-12,14.94-14,62.68c-1.78,43.73-4.39,219.13-4.81,248.21H446.78v15.51H489l-5.66,17.56a38.54,38.54,0,0,0-4.27,10.42l6.35,6.31,11.31-8.6-8.84-7.87h5.65l6.24,5.55,7.31-5.55h6.2l-10.65,8.1,11.15,9.93,6-5.68a42.51,42.51,0,0,0-4.75-12.47l-5.75-17.7h41.91V520.15Z"/>
      <path class="a" d="M513.89,576.59l-11.19,10.5,12.62,12.54,7.41-6.11c0-3.36-.14-6.46-.32-9.34Z"/>
      <path class="a" d="M475.67,593.16l8.25,6.39L497.29,587l-12.17-12.09-9,6.81C475.89,585.17,475.71,589,475.67,593.16Z"/>
      <path class="a" d="M516.64,574l5.34,4.76c-.33-3.22-.74-6.08-1.21-8.63Z"/>
      <path class="a" d="M476.66,576.63l5.77-4.39-4.37-4.33C477.53,570.45,477.05,573.35,476.66,576.63Z"/>
      <path class="a" d="M475.67,597.91c0,2.87.13,5.9.29,9.11l5.18-4.86Z"/>
      <path class="a" d="M477.12,624.54c.17,2.09.36,4.13.54,6.12l3.79-3.12Z"/>
      <polygon class="a" points="499.62 563.89 488.14 572.62 500.03 584.44 511.07 574.09 499.62 563.89"/>
      <path class="a" d="M503.18,614.5,515.45,624l6.21-4.3c.19-2.58.36-5.24.52-8l-7.1-7.06Z"/>
      <polygon class="a" points="499.95 589.66 486.92 601.88 500.14 612.14 512.4 602.03 499.95 589.66"/>
      <path class="a" d="M484.66,629.77l-6.55,5.39c.5,4.84,1,9.37,1.59,13.64l16.2-11.23Z"/>
      <path class="a" d="M497.17,614.59l-13-10.1-7.92,7.42q.22,4,.51,7.8l7.72,5.35Z"/>
      <polygon class="a" points="500.21 616.95 487.67 627.28 499.2 635.28 512.21 626.26 500.21 616.95"/>
      <path class="a" d="M502,688l10.93,10.22v-1.89A149.91,149.91,0,0,1,514.8,676Z"/>
      <path class="a" d="M522.45,606.72q.21-4.38.27-8.32L518,602.29Z"/>
      <path class="a" d="M521,628.28c.11-1.23.22-2.47.33-3.74l-2.72,1.89Z"/>
      <path class="a" d="M502.49,637.57,518.7,648.8c.64-5,1.26-10.33,1.83-16.09l-5.21-4Z"/>
      <path class="a" d="M515.49,671.36c.91-6.14,2-13,3-20.83l-16,11.48Z"/>
      <path class="a" d="M513.55,726.44l-14.36-11.79-14.34,11.76c-.05,1.32-.1,2.5-.14,3.52a28.57,28.57,0,0,0-4.92,16.37c0,13.53,8.59,24.49,19.19,24.49s19.19-11,19.19-24.49a28.79,28.79,0,0,0-4.45-15.68C513.67,729.46,513.61,728.06,513.55,726.44Z"/>
      <path class="a" d="M479.92,650.53c1,7.81,2.08,14.69,3,20.83L496,662Z"/>
      <polygon class="a" points="486.38 673.49 499.2 685.47 512.01 673.49 499.2 664.32 486.38 673.49"/>
      <path class="a" d="M496.45,688l-12.86-12a148.5,148.5,0,0,1,1.93,20.33c0,.62,0,1.26,0,1.89Z"/>
      <path class="a" d="M512.93,703.37l-10.78,8.85,11.21,9.21C513.19,716.17,513,709.8,512.93,703.37Z"/>
      <polygon class="a" points="499.2 639.85 485.11 649.62 499.2 659.7 513.29 649.62 499.2 639.85"/>
      <path class="a" d="M485.47,703.37c-.08,6.42-.26,12.78-.44,18l11.2-9.18Z"/>
      <polygon class="a" points="510.13 700.81 499.2 690.6 488.27 700.81 499.19 709.79 510.13 700.81"/>
    </g>
    <rect height="2.97" width="42.39" x="478.94" y="550.91"/>
  </g>
</svg>
